<?xml version="1.0" standalone="no"?>
<!DOCTYPE svg PUBLIC "-//W3C//DTD SVG 20010904//EN"
 "http://www.w3.org/TR/2001/REC-SVG-20010904/DTD/svg10.dtd">
<svg version="1.0" xmlns="http://www.w3.org/2000/svg"
 width="365.000000pt" height="297.000000pt" viewBox="0 0 365.000000 297.000000"
 preserveAspectRatio="xMidYMid meet">
<metadata>
Created by potrace 1.15, written by Peter Selinger 2001-2017
</metadata>
<g transform="translate(0.000000,297.000000) scale(0.100000,-0.100000)"
fill="#000000" stroke="none">
<path class="sketch" d="M903 2822 l147 -147 2 -935 3 -934 147 133 148 133 0 437 c0 240 3
607 6 816 l7 380 -149 132 -149 132 -155 1 -155 0 148 -148z"/>
<path class="sketch" d="M1593 2822 l147 -147 0 -668 c0 -373 4 -667 9 -667 5 0 71 56 148
125 l140 125 6 287 c4 157 7 409 7 558 l0 273 -147 131 -147 131 -155 0 -156
0 148 -148z"/>
<path class="sketch" d="M2150 2962 c0 -5 63 -68 140 -141 l140 -133 0 -414 c0 -228 4 -414 8
-414 5 0 74 59 155 131 l147 131 -1 297 0 296 -145 128 -145 127 -149 0 c-83
0 -150 -4 -150 -8z"/>
<path class="sketch" d="M1140 245 l0 -245 40 0 40 0 0 245 0 245 -40 0 -40 0 0 -245z"/>
<path class="sketch" d="M2245 361 c-49 -30 -68 -58 -73 -109 -7 -81 39 -142 120 -157 59 -11
148 38 148 82 0 5 -14 14 -31 20 -27 11 -35 10 -57 -7 -31 -25 -43 -25 -76 1
-31 25 -34 61 -6 89 25 25 58 26 84 1 19 -18 24 -18 54 -6 38 16 41 34 10 62
-53 47 -120 57 -173 24z"/>
<path class="sketch" d="M0 330 c0 -39 1 -40 35 -40 l35 0 0 -95 0 -95 45 0 45 0 0 94 0 95
38 3 c35 3 37 5 37 38 l0 35 -117 3 -118 3 0 -41z"/>
<path class="sketch" d="M320 235 l0 -135 45 0 45 0 0 45 0 45 45 0 45 0 0 -45 0 -45 40 0 40
0 0 135 0 135 -40 0 -40 0 0 -45 0 -45 -45 0 -45 0 0 45 0 45 -45 0 -45 0 0
-135z"/>
<path class="sketch" d="M680 235 l0 -135 110 0 110 0 0 40 0 40 -70 0 c-40 0 -70 4 -70 10 0
6 25 10 55 10 l55 0 0 35 0 35 -55 0 c-79 0 -68 19 13 22 l67 3 3 38 3 37
-110 0 -111 0 0 -135z"/>
<path class="sketch" d="M1440 235 l0 -135 40 0 40 0 1 48 0 47 19 -43 c28 -61 72 -61 100 1
l20 42 0 -47 0 -48 40 0 40 0 0 135 0 135 -42 0 -43 0 -29 -70 c-17 -39 -32
-70 -35 -70 -3 0 -19 32 -36 70 l-30 70 -42 0 -43 0 0 -135z"/>
<path class="sketch" d="M1927 363 c-5 -8 -26 -60 -88 -215 l-19 -48 44 0 c34 0 46 4 50 18 5
14 15 16 56 14 35 -3 50 -8 50 -18 0 -10 13 -14 45 -14 30 0 45 4 45 13 -1 6
-23 66 -49 132 l-49 120 -40 3 c-22 2 -42 -1 -45 -5z"/>
<path class="sketch" d="M2540 235 l0 -135 40 0 40 0 0 45 0 45 45 0 45 0 0 -45 0 -45 45 0
45 0 0 135 0 135 -45 0 -45 0 0 -44 0 -44 -45 -4 -45 -3 0 47 0 48 -40 0 -40
0 0 -135z"/>
<path class="sketch" d="M2910 235 l0 -135 45 0 45 0 0 135 0 135 -45 0 -45 0 0 -135z"/>
<path class="sketch" d="M3100 235 l0 -135 40 0 39 0 3 62 3 63 49 -63 c43 -54 53 -62 82 -62
l34 0 0 135 0 135 -40 0 -39 0 -3 -60 -3 -61 -45 60 c-41 55 -48 61 -82 61
l-38 0 0 -135z"/>
<path class="sketch" d="M3440 235 l0 -135 105 0 105 0 0 40 0 40 -65 0 c-37 0 -65 4 -65 10
0 6 25 10 55 10 l55 0 0 35 0 35 -56 0 c-34 0 -53 4 -49 10 3 6 33 10 66 10
l59 0 0 40 0 40 -105 0 -105 0 0 -135z"/>
</g>
</svg>
